<?xml version="1.0" standalone="no"?>
<!DOCTYPE svg PUBLIC "-//W3C//DTD SVG 20010904//EN"
 "http://www.w3.org/TR/2001/REC-SVG-20010904/DTD/svg10.dtd">
<svg version="1.0" xmlns="http://www.w3.org/2000/svg"
 width="196.000000pt" height="196.000000pt" viewBox="0 0 196.000000 196.000000"
 preserveAspectRatio="xMidYMid meet">
<metadata>
Created by potrace 1.11, written by Peter Selinger 2001-2013
</metadata>
<g transform="translate(0.000000,196.000000) scale(0.100000,-0.100000)"
fill="#000000" stroke="none">
<path d="M404 977 l1 -972 310 -3 310 -2 0 367 0 368 258 0 257 0 0 242 0 243
-257 2 -258 3 0 105 0 105 260 1 260 0 3 256 2 257 -574 0 -573 0 1 -972z
m942 730 c9 -5 10 -21 5 -58 -1 -3 -130 -5 -288 -5 l-288 1 -3 -316 -2 -316
262 -1 c145 0 270 -1 278 -1 11 -1 16 -11 16 -35 l0 -33 -266 -1 c-146 0 -271
-1 -277 -1 -10 -1 -13 -79 -13 -355 l0 -354 -38 1 -37 1 1 730 c1 402 2 736 3
741 1 11 629 14 647 2z"/>
</g>
</svg>
